<svg width="900" height="1200" viewBox="0 0 900 1200" fill="none" xmlns="http://www.w3.org/2000/svg">
  <rect width="900" height="1200" fill="#061536"/>
  <circle cx="116" cy="256" r="220" fill="#0B4EA2" opacity=".55"/>
  <circle cx="770" cy="134" r="230" fill="#D69B21" opacity=".22"/>
  <path d="M0 0h900v1200H0z" fill="url(#g)"/>
  <g opacity=".55" stroke="#F4B52A" stroke-width="2">
    <path d="M90 0l55 1200M216 0l-82 1200M808 0L690 1200M24 302l852 75M0 1030l900-184"/>
  </g>
  <g transform="translate(76 76)">
    <rect x="0" y="0" width="748" height="1048" rx="42" fill="#071B42" stroke="#F4B52A" stroke-width="6"/>
    <text x="374" y="148" text-anchor="middle" font-family="Arial Black, Arial, sans-serif" font-size="118" fill="#fff" letter-spacing="4">SANTANA</text>
    <text x="374" y="270" text-anchor="middle" font-family="Arial Black, Arial, sans-serif" font-size="148" fill="#E8A91D">2026</text>
    <text x="374" y="335" text-anchor="middle" font-family="Georgia, serif" font-size="52" fill="#fff" font-style="italic">Carvalhal Benfeito</text>
    <rect x="86" y="372" width="576" height="74" rx="14" fill="#123C82"/>
    <text x="374" y="424" text-anchor="middle" font-family="Arial Black, Arial, sans-serif" font-size="44" fill="#F4B52A">10, 11, 12 e 13 de Julho</text>
    <g font-family="Arial Black, Arial, sans-serif">
      <rect x="86" y="498" width="576" height="94" rx="18" fill="#fff"/>
      <text x="112" y="535" font-size="24" fill="#123C82">10 JULHO · SEXTA-FEIRA</text>
      <text x="112" y="574" font-size="36" fill="#061536">22H EÇA BANDA · 02H DJ FIREBALL</text>
      <rect x="86" y="622" width="576" height="94" rx="18" fill="#fff"/>
      <text x="112" y="659" font-size="24" fill="#123C82">11 JULHO · SÁBADO</text>
      <text x="112" y="698" font-size="36" fill="#061536">22H BANDA ATK · 02H DJ FAT MIKE</text>
      <rect x="86" y="746" width="576" height="94" rx="18" fill="#fff"/>
      <text x="112" y="783" font-size="24" fill="#123C82">12 JULHO · DOMINGO</text>
      <text x="112" y="822" font-size="36" fill="#061536">22H JC POWER · 23H30 SAUL</text>
      <rect x="86" y="870" width="576" height="94" rx="18" fill="#fff"/>
      <text x="112" y="907" font-size="24" fill="#123C82">13 JULHO · SEGUNDA-FEIRA</text>
      <text x="112" y="946" font-size="36" fill="#061536">22H NELSON LORDS</text>
    </g>
    <rect x="86" y="986" width="576" height="42" rx="21" fill="#F4B52A"/>
    <text x="374" y="1015" text-anchor="middle" font-family="Arial Black, Arial, sans-serif" font-size="22" fill="#061536">Todos os dias haverá restaurante com frango assado</text>
  </g>
  <defs>
    <radialGradient id="g" cx="0" cy="0" r="1" gradientUnits="userSpaceOnUse" gradientTransform="translate(420 420) rotate(90) scale(800)">
      <stop stop-color="#0E55B0"/>
      <stop offset="1" stop-color="#030916"/>
    </radialGradient>
  </defs>
</svg>
